<svg width="123" height="36" viewBox="0 0 123 36" fill="none" xmlns="http://www.w3.org/2000/svg">
<path d="M27.5121 0H8.1517C3.64964 0 0 3.64964 0 8.1517V27.5121C0 32.0141 3.64964 35.6638 8.1517 35.6638H27.5121C32.0141 35.6638 35.6638 32.0141 35.6638 27.5121V8.1517C35.6638 3.64964 32.0141 0 27.5121 0Z" fill="#4986CC"/>
<path d="M9.54948 12.7371H7.18037C6.54358 12.7371 6.38588 13.0167 6.37004 13.3396L6.36853 13.4007C6.36853 14.0106 7.14188 16.9911 9.94709 20.9556L10.1078 21.181C12.0649 23.965 14.8234 25.4741 17.3328 25.4741C18.7867 25.4741 19.0101 25.1617 19.0244 24.6204L19.0252 22.4574C19.0252 21.8243 19.1519 21.6698 19.5676 21.6546L19.6446 21.6533C19.9954 21.6533 20.5983 21.8273 22.0031 23.1696C23.6095 24.7605 23.8743 25.4741 24.7774 25.4741H27.1465C27.8233 25.4741 28.1621 25.1389 27.9666 24.4774C27.7644 23.8529 27.065 22.9616 26.1272 21.9054L25.9688 21.7279C25.4165 21.0816 24.588 20.3856 24.3375 20.0375C24.0327 19.6498 24.0674 19.4487 24.2455 19.1431L24.3375 18.9935C24.3375 18.9935 27.102 15.1362 27.5019 13.6904L27.5245 13.5996C27.6754 13.1024 27.5245 12.7371 26.8085 12.7371H24.4394C23.8773 12.7371 23.5981 13.012 23.4404 13.3316L23.2299 13.8052C22.8353 14.67 21.816 16.7383 20.4979 18.1981L20.2919 18.3975C19.8777 18.7883 19.6544 18.919 19.3933 18.919C19.2424 18.919 19.0244 18.745 19.0244 18.2479V13.5996C19.0244 13.003 18.8501 12.7371 18.3476 12.7371H14.6257C14.2492 12.7371 14.0229 13.014 14.0229 13.2764C14.0229 13.842 14.8762 13.9724 14.9637 15.5632V19.0185C14.9637 19.776 14.8256 19.9133 14.5246 19.9133C13.7384 19.9133 11.8507 17.115 10.6842 13.862L10.6095 13.6492C10.3824 12.9995 10.1546 12.7371 9.54948 12.7371Z" fill="white"/>
<path d="M51.7437 8.63742L56.9678 22.5188L62.1796 8.63742H66.247V26.7479H63.1125V20.7774L63.4234 12.7919L58.0749 26.7479H55.8235L50.4874 12.8043L50.7983 20.7774V26.7479H47.6638V8.63742H51.7437Z" fill="#4986CC"/>
<path d="M69.1203 19.8943C69.1203 18.5758 69.3815 17.39 69.9039 16.3369C70.4263 15.2754 71.1602 14.4628 72.1055 13.8989C73.0509 13.3267 74.1372 13.0407 75.3644 13.0407C77.1805 13.0407 78.6524 13.6253 79.7801 14.7945C80.9162 15.9637 81.5298 17.5144 81.621 19.4465L81.6335 20.1555C81.6335 21.4823 81.3764 22.6681 80.8623 23.7129C80.3564 24.7578 79.6267 25.5663 78.6731 26.1384C77.7278 26.7106 76.6332 26.9967 75.3893 26.9967C73.4904 26.9967 71.9687 26.3665 70.8244 25.106C69.6883 23.8373 69.1203 22.1498 69.1203 20.0436V19.8943ZM72.1429 20.1555C72.1429 21.5403 72.4289 22.6266 73.0011 23.4144C73.5733 24.1939 74.3693 24.5836 75.3893 24.5836C76.4093 24.5836 77.2012 24.1856 77.7651 23.3895C78.3372 22.5935 78.6233 21.4284 78.6233 19.8943C78.6233 18.5343 78.3289 17.4563 77.7402 16.6603C77.1597 15.8642 76.3678 15.4662 75.3644 15.4662C74.3776 15.4662 73.594 15.8601 73.0135 16.6478C72.4331 17.4273 72.1429 18.5965 72.1429 20.1555Z" fill="#4986CC"/>
<path d="M96 20.1555C96 22.2452 95.5314 23.9078 94.5944 25.1434C93.6657 26.3789 92.3845 26.9967 90.7509 26.9967C89.1754 26.9967 87.9481 26.4287 87.0691 25.2926L86.9198 26.7479H84.1834V7.64233H87.2059V14.583C88.0766 13.5548 89.25 13.0407 90.726 13.0407C92.3679 13.0407 93.6574 13.6501 94.5944 14.8691C95.5314 16.0881 96 17.7922 96 19.9814V20.1555ZM92.9774 19.8943C92.9774 18.4348 92.7203 17.3402 92.2062 16.6105C91.6921 15.8808 90.9458 15.5159 89.9673 15.5159C88.6571 15.5159 87.7366 16.0881 87.2059 17.2324V22.78C87.7449 23.9493 88.6737 24.5339 89.9921 24.5339C90.9375 24.5339 91.6672 24.1814 92.1813 23.4766C92.6955 22.7717 92.9608 21.7062 92.9774 20.2799V19.8943Z" fill="#4986CC"/>
<path d="M101.759 26.7479H98.7364V13.2894H101.759V26.7479ZM98.5499 9.7942C98.5499 9.32983 98.695 8.94423 98.9852 8.63742C99.2837 8.3306 99.7066 8.17719 100.254 8.17719C100.801 8.17719 101.224 8.3306 101.523 8.63742C101.821 8.94423 101.97 9.32983 101.97 9.7942C101.97 10.2503 101.821 10.6317 101.523 10.9385C101.224 11.2371 100.801 11.3863 100.254 11.3863C99.7066 11.3863 99.2837 11.2371 98.9852 10.9385C98.695 10.6317 98.5499 10.2503 98.5499 9.7942Z" fill="#4986CC"/>
<path d="M108.277 26.7479H105.254V7.64233H108.277V26.7479Z" fill="#4986CC"/>
<path d="M117.506 26.9967C115.591 26.9967 114.036 26.3955 112.842 25.1931C111.656 23.9824 111.063 22.3737 111.063 20.367V19.9938C111.063 18.6504 111.32 17.4522 111.834 16.3991C112.357 15.3376 113.086 14.5126 114.023 13.9238C114.96 13.335 116.005 13.0407 117.158 13.0407C118.991 13.0407 120.404 13.6253 121.399 14.7945C122.403 15.9637 122.905 17.618 122.905 19.7575V20.9764H114.11C114.202 22.0876 114.571 22.9666 115.217 23.6134C115.873 24.2602 116.694 24.5836 117.68 24.5836C119.065 24.5836 120.193 24.0239 121.064 22.9044L122.693 24.4592C122.154 25.2636 121.433 25.8897 120.529 26.3374C119.633 26.7769 118.626 26.9967 117.506 26.9967ZM117.145 15.4662C116.316 15.4662 115.645 15.7564 115.13 16.3369C114.625 16.9173 114.301 17.7258 114.16 18.7624H119.919V18.5385C119.853 17.5268 119.583 16.7639 119.111 16.2498C118.638 15.7274 117.983 15.4662 117.145 15.4662Z" fill="#4986CC"/>
</svg>
