<svg width="309" height="190" viewBox="0 0 309 190" fill="none" xmlns="http://www.w3.org/2000/svg">
<g clip-path="url(#clip0)">
<path d="M272.841 63H39.1586C28.5776 63 20 71.5776 20 82.1586V169.841C20 180.422 28.5776 189 39.1586 189H272.841C283.422 189 292 180.422 292 169.841V82.1586C292 71.5776 283.422 63 272.841 63Z" fill="#F2F3F5"/>
<g filter="url(#filter0_d)">
<path d="M46.6218 39.3212C46.6218 30.3073 53.929 23 62.943 23H159.057C168.071 23 175.378 30.3073 175.378 39.3212V189.839H46.6218V39.3212Z" fill="white"/>
<path d="M162.559 51.4534H59.4404C56.6861 51.4534 54.4534 53.6861 54.4534 56.4404V192.559C54.4534 195.314 56.6861 197.546 59.4404 197.546H162.559C165.314 197.546 167.546 195.314 167.546 192.559V56.4404C167.546 53.6861 165.314 51.4534 162.559 51.4534Z" fill="white" stroke="#F0F0F0" stroke-width="0.906736"/>
<path d="M152.71 59.7358H87.4249C81.9164 59.7358 77.4508 64.2014 77.4508 69.7099V69.7099C77.4508 75.2185 81.9164 79.684 87.4249 79.684H152.71C158.218 79.684 162.684 75.2185 162.684 69.7099C162.684 64.2014 158.218 59.7358 152.71 59.7358Z" fill="#EBEDF0"/>
<mask id="mask0" mask-type="alpha" maskUnits="userSpaceOnUse" x="59" y="111" width="15" height="16">
<path d="M66.6203 126.608C70.6543 126.608 73.9246 123.338 73.9246 119.304C73.9246 115.27 70.6543 112 66.6203 112C62.5863 112 59.316 115.27 59.316 119.304C59.316 123.338 62.5863 126.608 66.6203 126.608Z" fill="#E1E3E6"/>
</mask>
<g mask="url(#mask0)">
</g>
<mask id="mask1" mask-type="alpha" maskUnits="userSpaceOnUse" x="59" y="59" width="15" height="16">
<path d="M66.6203 74.599C70.6543 74.599 73.9246 71.3288 73.9246 67.2947C73.9246 63.2607 70.6543 59.9905 66.6203 59.9905C62.5863 59.9905 59.316 63.2607 59.316 67.2947C59.316 71.3288 62.5863 74.599 66.6203 74.599Z" fill="#E1E3E6"/>
</mask>
<g mask="url(#mask1)">
<path d="M66.6203 74.599C70.6543 74.599 73.9246 71.3288 73.9246 67.2947C73.9246 63.2607 70.6543 59.9905 66.6203 59.9905C62.5863 59.9905 59.316 63.2607 59.316 67.2947C59.316 71.3288 62.5863 74.599 66.6203 74.599Z" fill="#E1E3E6"/>
<g opacity="0.5">
<path opacity="0.5" d="M69.6668 66.3334C69.6668 64.5838 68.2496 63.1667 66.5 63.1667C64.7504 63.1667 63.3334 64.5838 63.3334 66.3334C63.3334 68.083 64.7504 69.5001 66.5 69.5001C68.2496 69.5001 69.6668 68.083 69.6668 66.3334ZM60.1667 74.2501V75.0379C60.1667 75.4773 60.5229 75.8334 60.9623 75.8334H72.0377C72.4771 75.8334 72.8333 75.4773 72.8333 75.0379V74.2501C72.8333 71.4792 68.6138 70.6876 66.5 70.6876C64.3863 70.6876 60.1667 71.4792 60.1667 74.2501Z" fill="#99A2AD"/>
</g>
</g>
<mask id="mask2" mask-type="alpha" maskUnits="userSpaceOnUse" x="146" y="86" width="16" height="15">
<path d="M154.304 100.609C158.338 100.609 161.608 97.3383 161.608 93.3043C161.608 89.2702 158.338 86 154.304 86C150.27 86 147 89.2702 147 93.3043C147 97.3383 150.27 100.609 154.304 100.609Z" fill="#E1E3E6"/>
</mask>
<g mask="url(#mask2)">
</g>
<mask id="mask3" mask-type="alpha" maskUnits="userSpaceOnUse" x="146" y="137" width="16" height="16">
<path d="M154.304 152.608C158.338 152.608 161.608 149.338 161.608 145.304C161.608 141.27 158.338 138 154.304 138C150.27 138 147 141.27 147 145.304C147 149.338 150.27 152.608 154.304 152.608Z" fill="#E1E3E6"/>
</mask>
<g mask="url(#mask3)">
</g>
</g>
<path d="M248.029 30H221.971C215.912 30 211 34.9121 211 40.9714V67.0286C211 73.0879 215.912 78 221.971 78H248.029C254.088 78 259 73.0879 259 67.0286V40.9714C259 34.9121 254.088 30 248.029 30Z" fill="#4986CC"/>
<path d="M224.363 46.457H221.223C220.379 46.457 220.17 46.8308 220.149 47.2626L220.147 47.3442C220.147 48.1596 221.172 52.1444 224.89 57.4446L225.103 57.746C227.697 61.468 231.353 63.4856 234.679 63.4856C236.606 63.4856 236.902 63.0679 236.921 62.3443L236.922 59.4525C236.922 58.6061 237.09 58.3995 237.641 58.3792L237.743 58.3774C238.208 58.3774 239.007 58.61 240.869 60.4046C242.998 62.5315 243.349 63.4856 244.546 63.4856H247.686C248.583 63.4856 249.032 63.0375 248.773 62.1531C248.505 61.3181 247.578 60.1265 246.335 58.7145L246.125 58.4771C245.393 57.6131 244.295 56.6826 243.963 56.2172C243.559 55.6989 243.605 55.43 243.841 55.0214L243.963 54.8215C243.963 54.8215 247.627 49.6645 248.157 47.7315L248.187 47.6101C248.387 46.9454 248.187 46.457 247.238 46.457H244.098C243.353 46.457 242.983 46.8246 242.774 47.2518L242.495 47.885C241.972 49.0412 240.621 51.8064 238.874 53.7581L238.601 54.0246C238.052 54.5471 237.756 54.7218 237.41 54.7218C237.21 54.7218 236.921 54.4892 236.921 53.8246V47.6101C236.921 46.8125 236.69 46.457 236.024 46.457H231.091C230.592 46.457 230.292 46.8272 230.292 47.178C230.292 47.9342 231.423 48.1085 231.539 50.2354V54.8548C231.539 55.8676 231.356 56.0512 230.957 56.0512C229.915 56.0512 227.413 52.31 225.867 47.961L225.768 47.6765C225.467 46.8079 225.165 46.457 224.363 46.457Z" fill="white"/>
<path d="M230.328 96.8672H233.578V100.117H236.422V96.8672H239.68V94.0234H236.422V90.7656H233.578V94.0234H230.328V96.8672Z" fill="#CDCDCD"/>
<path fill-rule="evenodd" clip-rule="evenodd" d="M222.25 112.971H247.75C253.963 112.971 259 118.008 259 124.221V149.721C259 155.935 253.963 160.971 247.75 160.971H222.25C216.037 160.971 211 155.935 211 149.721V124.221C211 118.008 216.037 112.971 222.25 112.971Z" fill="#F94855"/>
<rect x="224" y="120" width="23" height="33" rx="4" fill="white"/>
</g>
<defs>
<filter id="filter0_d" x="21.6218" y="-2" width="178.756" height="225" filterUnits="userSpaceOnUse" color-interpolation-filters="sRGB">
<feFlood flood-opacity="0" result="BackgroundImageFix"/>
<feColorMatrix in="SourceAlpha" type="matrix" values="0 0 0 0 0 0 0 0 0 0 0 0 0 0 0 0 0 0 127 0"/>
<feOffset/>
<feGaussianBlur stdDeviation="12.5"/>
<feColorMatrix type="matrix" values="0 0 0 0 0 0 0 0 0 0 0 0 0 0 0 0 0 0 0.1 0"/>
<feBlend mode="normal" in2="BackgroundImageFix" result="effect1_dropShadow"/>
<feBlend mode="normal" in="SourceGraphic" in2="effect1_dropShadow" result="shape"/>
</filter>
<clipPath id="clip0">
<rect width="309" height="190" fill="white"/>
</clipPath>
</defs>
</svg>
